<svg width="18" height="20" viewBox="0 0 18 20" fill="none" xmlns="http://www.w3.org/2000/svg">
<path d="M8.562 19.814C8.74817 19.9349 8.97123 19.9998 9.2 19.9998C9.42877 19.9998 9.65183 19.9349 9.838 19.814C10.1724 19.599 18.0319 14.44 18 8C18 3.589 14.0521 0 9.2 0C4.3479 0 0.399999 3.589 0.399999 7.995C0.368099 14.44 8.2276 19.599 8.562 19.814ZM9.2 2C12.8399 2 15.8 4.691 15.8 8.005C15.8231 12.443 10.9732 16.428 9.2 17.735C7.4279 16.427 2.5769 12.441 2.6 8C2.6 4.691 5.5601 2 9.2 2Z" fill="black"/>
</svg>
